<svg width="26" height="27" viewBox="0 0 26 27" fill="none" xmlns="http://www.w3.org/2000/svg">
<path d="M24.0741 26.0372L21.7065 23.6696" stroke="#FFDD76" stroke-width="1.5" stroke-linecap="round" stroke-linejoin="round"/>
<path fill-rule="evenodd" clip-rule="evenodd" d="M17.8982 14.4813C20.8693 14.4813 23.2779 16.8899 23.2779 19.8611C23.2338 22.8138 20.8509 25.1967 17.8982 25.2408C14.927 25.2408 12.5184 22.8322 12.5184 19.8611C12.5184 16.8899 14.927 14.4813 17.8982 14.4813" fill="#4DCBD3"/>
<path d="M17.8982 14.4813C20.8693 14.4813 23.2779 16.8899 23.2779 19.8611C23.2338 22.8138 20.8509 25.1967 17.8982 25.2408C14.927 25.2408 12.5184 22.8322 12.5184 19.8611C12.5184 16.8899 14.927 14.4813 17.8982 14.4813" stroke="#4DCBD3" stroke-width="1.5" stroke-linecap="round" stroke-linejoin="round"/>
<path d="M0.963013 19.6172V22.1851C0.963013 23.6033 2.1127 24.753 3.53091 24.753H8.66672" stroke="#FFDD76" stroke-width="1.5" stroke-linecap="round" stroke-linejoin="round"/>
<path d="M24.074 11.9135V5.49374C24.074 4.07553 22.9243 2.92584 21.5061 2.92584H13.8024" stroke="#FFDD76" stroke-width="1.5" stroke-linecap="round" stroke-linejoin="round"/>
<path d="M19.728 18.92L17.4413 21.2055L16.0675 19.8355" stroke="#FFDD76" stroke-width="1.5" stroke-linecap="round" stroke-linejoin="round"/>
<path fill-rule="evenodd" clip-rule="evenodd" d="M9.95067 13.8396H1.60499C1.25043 13.8396 0.963013 13.5522 0.963013 13.1977V12.6764C0.967244 11.1933 2.16849 9.99202 3.65161 9.98779H7.90405C9.38716 9.99202 10.5884 11.1933 10.5926 12.6764V13.1977C10.5926 13.5522 10.3052 13.8396 9.95067 13.8396Z" fill="#4DCBD3" stroke="#4DCBD3" stroke-width="1.5" stroke-linecap="round" stroke-linejoin="round"/>
<path fill-rule="evenodd" clip-rule="evenodd" d="M5.77772 6.77766C4.36085 6.77766 3.21173 5.63004 3.20984 4.21317C3.20796 2.79629 4.35403 1.64564 5.7709 1.64185C7.18777 1.63809 8.33996 2.78262 8.34564 4.19948C8.34835 4.88231 8.07902 5.53811 7.59714 6.02191C7.11527 6.50571 6.46056 6.77766 5.77772 6.77766Z" fill="#4DCBD3" stroke="#4DCBD3" stroke-width="1.5" stroke-linecap="round" stroke-linejoin="round"/>
</svg>
