<svg width="124" height="124" viewBox="0 0 124 124" fill="none" xmlns="http://www.w3.org/2000/svg">
<circle cx="62.339" cy="61.8475" r="61.5254" fill="#FFDD76"/>
<circle opacity="0.56" cx="62.339" cy="61.8475" r="34.0678" fill="#EECB64"/>
<path d="M48.2404 108.003C48.3041 107.945 48.3659 107.906 48.4256 107.885C48.4823 107.863 48.5488 107.863 48.6249 107.884C48.6923 107.903 48.7597 107.944 48.8272 108.007C48.891 108.073 48.9652 108.146 49.0499 108.227C49.1317 108.307 49.2297 108.385 49.3441 108.462C49.4576 108.541 49.5949 108.603 49.756 108.649C50.0342 108.727 50.259 108.726 50.4305 108.645C50.5983 108.566 50.7107 108.425 50.7677 108.223C50.804 108.094 50.7932 107.976 50.7351 107.868C50.6771 107.759 50.5909 107.656 50.4764 107.557C50.3591 107.458 50.2229 107.358 50.0679 107.257C49.9092 107.159 49.7496 107.052 49.5891 106.937C49.4278 106.825 49.2743 106.703 49.1284 106.57C48.9795 106.436 48.8578 106.285 48.7632 106.116C48.6657 105.946 48.6028 105.755 48.5745 105.541C48.5454 105.331 48.5684 105.092 48.6436 104.826C48.727 104.53 48.8563 104.268 49.0315 104.039C49.2067 103.81 49.4197 103.627 49.6704 103.489C49.9174 103.353 50.2 103.27 50.5184 103.24C50.8331 103.211 51.1719 103.249 51.5351 103.351C51.7342 103.407 51.9319 103.485 52.1283 103.585C52.3217 103.684 52.5047 103.797 52.6774 103.925C52.8492 104.055 53.0055 104.196 53.1465 104.346C53.2874 104.497 53.4031 104.653 53.4935 104.814L52.8584 105.384C52.8092 105.424 52.7523 105.452 52.6875 105.469C52.6191 105.487 52.5511 105.487 52.4838 105.468C52.3959 105.443 52.3159 105.391 52.2438 105.31C52.1687 105.229 52.085 105.139 51.9927 105.04C51.8975 104.941 51.7845 104.842 51.6538 104.745C51.5231 104.649 51.3582 104.572 51.159 104.516C50.8896 104.44 50.6637 104.439 50.4813 104.514C50.2981 104.592 50.1701 104.76 50.0974 105.018C50.0553 105.167 50.062 105.3 50.1176 105.417C50.1731 105.534 50.2596 105.642 50.3769 105.742C50.4914 105.84 50.6269 105.937 50.7835 106.032C50.9402 106.127 51.1 106.227 51.2629 106.333C51.425 106.442 51.5794 106.561 51.7261 106.691C51.872 106.824 51.9933 106.977 52.09 107.15C52.183 107.324 52.242 107.524 52.267 107.75C52.2911 107.978 52.2611 108.241 52.1768 108.54C52.1091 108.78 51.9947 109.001 51.8336 109.202C51.6725 109.403 51.4731 109.566 51.2353 109.692C50.9974 109.818 50.7275 109.895 50.4254 109.924C50.1225 109.955 49.7953 109.921 49.4439 109.822C49.2477 109.767 49.0619 109.697 48.8865 109.613C48.7073 109.531 48.543 109.435 48.3934 109.327C48.243 109.221 48.108 109.106 47.9885 108.98C47.8652 108.857 47.7613 108.726 47.6769 108.589L48.2404 108.003Z" fill="#BB932C"/>
<path d="M41.1927 105.32L41.9122 103.946L40.0601 102.976L40.5891 101.965L42.4412 102.935L43.1755 101.531L40.7573 100.266L41.3075 99.2145L45.1007 101.199L42.0175 107.091L38.2243 105.106L38.7745 104.055L41.1927 105.32Z" fill="#BB932C"/>
<path d="M33.3642 94.9745L34.1479 94.0235L37.2404 96.572L33.0114 101.704L31.8208 100.723L35.2662 96.5419L33.3642 94.9745Z" fill="#BB932C"/>
<path d="M24.2465 87.6894C24.6299 87.3993 25.0371 87.1962 25.4681 87.08C25.8973 86.9613 26.3252 86.9294 26.7521 86.9843C27.1765 87.0409 27.5863 87.1868 27.9816 87.4218C28.3751 87.6545 28.7279 87.9771 29.04 88.3896C29.3521 88.8021 29.5675 89.2305 29.6862 89.6749C29.8049 90.1193 29.8347 90.5546 29.7756 90.9808C29.7123 91.4064 29.5661 91.8108 29.337 92.1939C29.1061 92.5746 28.799 92.91 28.4156 93.2001C28.0322 93.4901 27.6259 93.6945 27.1968 93.8131C26.7658 93.9293 26.3381 93.9591 25.9137 93.9024C25.4875 93.8434 25.0767 93.6963 24.6814 93.4612C24.2861 93.2261 23.9324 92.9023 23.6203 92.4898C23.3082 92.0773 23.0949 91.6492 22.9805 91.2054C22.8618 90.761 22.8329 90.3269 22.8938 89.9031C22.9548 89.4793 23.1006 89.0771 23.3315 88.6964C23.5606 88.3133 23.8656 87.9776 24.2465 87.6894ZM25.1993 88.9487C24.9373 89.147 24.7276 89.3591 24.5703 89.5849C24.4106 89.8125 24.3066 90.0457 24.2583 90.2845C24.2082 90.5208 24.214 90.7606 24.2759 91.0037C24.3378 91.2469 24.4577 91.4862 24.6358 91.7215C24.8157 91.9593 25.0152 92.1423 25.2342 92.2704C25.4513 92.3961 25.6814 92.4681 25.9243 92.4866C26.1653 92.5026 26.4171 92.4648 26.6796 92.373C26.9397 92.2831 27.2008 92.139 27.4628 91.9407C27.7273 91.7406 27.9394 91.5267 28.0991 91.2991C28.2564 91.0732 28.3601 90.8422 28.4103 90.6058C28.4586 90.3671 28.4518 90.1261 28.3899 89.883C28.3238 89.6392 28.2008 89.3984 28.0208 89.1606C27.8428 88.9252 27.6464 88.7438 27.4316 88.6163C27.2145 88.4906 26.9853 88.4198 26.7443 88.4037C26.5014 88.3853 26.2499 88.421 25.9898 88.5109C25.7273 88.6027 25.4638 88.7486 25.1993 88.9487Z" fill="#BB932C"/>
<path d="M18 75.7068L17.9366 75.4686C17.8779 75.2481 17.7666 75.1077 17.6025 75.0475L15.1181 74.1595C14.9837 74.104 14.8829 74.0332 14.816 73.9471C14.7452 73.8589 14.6903 73.7413 14.6512 73.5942L14.3061 72.2975L17.411 73.5115C17.6264 73.599 17.7945 73.7102 17.9154 73.8449C17.9268 73.7222 17.9571 73.6055 18.0064 73.4948C18.0556 73.384 18.1285 73.2733 18.225 73.1627L20.6901 70.4285L21.0446 71.7605C21.0672 71.8458 21.0809 71.9208 21.0856 71.9857C21.0895 72.0477 21.0855 72.1038 21.0738 72.1542C21.062 72.2045 21.0442 72.2502 21.0205 72.2911C20.9938 72.3329 20.9623 72.3743 20.926 72.4155L19.0772 74.4661C19.009 74.5409 18.9696 74.6238 18.9592 74.7147C18.9451 74.8035 18.9564 74.917 18.9932 75.0552L19.0894 75.4169L21.824 74.6891L22.2207 76.1799L15.7945 77.8901L15.3977 76.3994L18 75.7068Z" fill="#BB932C"/>
<path d="M20.0557 64.5822L20.1585 66.1306L13.5232 66.5713L13.4204 65.0229L20.0557 64.5822Z" fill="#BB932C"/>
<path d="M14.113 53.216L20.7031 54.1053L20.5957 54.9014C20.5798 55.019 20.5483 55.1161 20.5011 55.1926C20.4514 55.2657 20.3744 55.3352 20.2704 55.4009L15.9205 57.9779C16.0397 57.9817 16.1553 57.9896 16.2673 58.0017C16.3766 58.0103 16.4796 58.0211 16.5761 58.0341L20.1086 58.5108L19.9267 59.8587L13.3366 58.9694L13.4452 58.1643C13.4542 58.0979 13.4647 58.0426 13.4768 57.9981C13.489 57.9537 13.5065 57.9147 13.5295 57.8809C13.5495 57.8468 13.5768 57.8151 13.6114 57.786C13.646 57.7569 13.6918 57.7247 13.7488 57.6894L18.1295 55.089C18.0008 55.087 17.8773 55.0811 17.7588 55.0712C17.6374 55.061 17.5239 55.0487 17.4184 55.0345L13.9311 54.5639L14.113 53.216Z" fill="#BB932C"/>
<path d="M19.9122 44.9379L20.8068 42.7495L23.405 43.8116C23.507 44.2215 23.537 44.6265 23.495 45.0268C23.4541 45.4243 23.3542 45.8174 23.1953 46.2061C22.9881 46.713 22.7204 47.1427 22.3923 47.4951C22.0625 47.8435 21.6977 48.1085 21.298 48.2903C20.8955 48.4709 20.4699 48.5632 20.0212 48.5671C19.5697 48.5699 19.1187 48.4792 18.668 48.295C18.2089 48.1073 17.8189 47.8592 17.4981 47.5505C17.1744 47.2407 16.9307 46.8879 16.767 46.4923C16.6044 46.0939 16.5275 45.663 16.536 45.1997C16.5458 44.7336 16.652 44.2528 16.8546 43.757C16.9594 43.5007 17.0789 43.2686 17.2133 43.0605C17.3477 42.8525 17.49 42.6691 17.6404 42.5103C17.7919 42.3487 17.9506 42.2098 18.1165 42.0935C18.2823 41.9772 18.4498 41.8813 18.6187 41.8057L19.0789 42.4771C19.151 42.5822 19.1771 42.6914 19.157 42.8048C19.1381 42.9154 19.0678 43.0149 18.9462 43.1033C18.8326 43.1883 18.7311 43.2717 18.6418 43.3535C18.5508 43.4314 18.4685 43.5161 18.3949 43.6076C18.3213 43.6992 18.2539 43.7998 18.1926 43.9095C18.1313 44.0193 18.0713 44.1459 18.0126 44.2896C17.9032 44.5572 17.8527 44.8175 17.8609 45.0707C17.8664 45.3228 17.9239 45.56 18.0335 45.7823C18.1443 46.0018 18.3041 46.2019 18.5129 46.3826C18.719 46.5621 18.9698 46.7124 19.2656 46.8332C19.5923 46.9668 19.9008 47.0403 20.1911 47.0538C20.4815 47.0673 20.7473 47.0281 20.9887 46.9361C21.2313 46.8413 21.4456 46.6988 21.6319 46.5087C21.8164 46.3146 21.9657 46.0781 22.0796 45.7993C22.1499 45.6275 22.1963 45.4657 22.2189 45.3138C22.2427 45.1592 22.2535 45.0042 22.2512 44.8488L21.3176 44.4671L21.0689 45.0755C21.032 45.1656 20.9793 45.2262 20.9107 45.2574C20.8421 45.2885 20.7712 45.2891 20.698 45.2591L19.9122 44.9379Z" fill="#BB932C"/>
<path d="M29.1587 25.9557L33.9066 30.6118L32.8201 31.7197L30.8127 29.7512L28.9209 31.6804L30.9283 33.6489L29.8418 34.7568L25.0938 30.1008L26.1804 28.9929L28.1649 30.939L30.0567 29.0098L28.0722 27.0637L29.1587 25.9557Z" fill="#BB932C"/>
<path d="M41.7035 21.185C41.9485 21.5987 42.1044 22.0262 42.1712 22.4676C42.2406 22.9074 42.224 23.3362 42.1214 23.7541C42.0172 24.1694 41.826 24.5602 41.5478 24.9265C41.2722 25.2912 40.9119 25.6053 40.4668 25.8688C40.0217 26.1324 39.5717 26.298 39.1168 26.3658C38.6619 26.4336 38.226 26.4141 37.8091 26.3073C37.3934 26.1963 37.0081 26.0054 36.6532 25.7346C36.301 25.4622 36.0025 25.1192 35.7575 24.7055C35.5126 24.2918 35.3554 23.8651 35.286 23.4253C35.2191 22.984 35.2378 22.5556 35.342 22.1404C35.4488 21.7235 35.6413 21.332 35.9195 20.9657C36.1977 20.5994 36.5594 20.2845 37.0045 20.021C37.4496 19.7575 37.899 19.5939 38.3529 19.5303C38.8078 19.4625 39.2424 19.4828 39.6566 19.5911C40.0708 19.6995 40.454 19.8898 40.8062 20.1622C41.1611 20.433 41.4602 20.774 41.7035 21.185ZM40.3447 21.9896C40.1773 21.7068 39.9902 21.4745 39.7836 21.2928C39.5754 21.1084 39.3555 20.9787 39.1237 20.9038C38.8945 20.8273 38.6556 20.8061 38.407 20.8401C38.1585 20.8742 37.9072 20.9664 37.6532 21.1167C37.3966 21.2686 37.1923 21.4462 37.0403 21.6493C36.8909 21.8509 36.7934 22.0713 36.7476 22.3106C36.7045 22.5483 36.7137 22.8028 36.7753 23.0739C36.8353 23.3425 36.949 23.6182 37.1164 23.901C37.2854 24.1864 37.4739 24.4212 37.6821 24.6056C37.8887 24.7874 38.1066 24.9165 38.3358 24.993C38.5676 25.0679 38.8078 25.0884 39.0563 25.0543C39.306 25.0161 39.5591 24.9211 39.8157 24.7692C40.0697 24.6188 40.2721 24.4441 40.4231 24.2451C40.5725 24.0435 40.6687 23.8239 40.7118 23.5862C40.7576 23.3469 40.7505 23.093 40.6905 22.8245C40.6289 22.5533 40.5137 22.275 40.3447 21.9896Z" fill="#BB932C"/>
<path d="M49.8452 15.9825C49.8233 16.0658 49.793 16.1325 49.7544 16.1827C49.7187 16.232 49.6631 16.2684 49.5875 16.2918C49.5207 16.3125 49.4417 16.3147 49.3506 16.2984C49.2616 16.2782 49.1595 16.2573 49.0445 16.2356C48.9324 16.213 48.8075 16.2008 48.6699 16.1988C48.5314 16.194 48.3823 16.2164 48.2224 16.2659C47.9463 16.3516 47.7585 16.4751 47.6588 16.6366C47.5612 16.7943 47.5435 16.9734 47.6056 17.174C47.6453 17.3019 47.7189 17.3953 47.8264 17.4544C47.9339 17.5134 48.0625 17.5532 48.2122 17.5736C48.3648 17.5932 48.5335 17.603 48.7183 17.6031C48.9051 17.5993 49.097 17.6019 49.2941 17.6109C49.4903 17.6169 49.6858 17.6359 49.8805 17.668C50.0781 17.6991 50.2626 17.7597 50.4339 17.85C50.6081 17.9393 50.7652 18.0658 50.9052 18.2295C51.0442 18.3902 51.1548 18.6028 51.2368 18.8673C51.3278 19.1608 51.3621 19.4512 51.3397 19.7385C51.3173 20.0258 51.2385 20.2955 51.1032 20.5477C50.97 20.7961 50.7781 21.0197 50.5275 21.2184C50.279 21.4134 49.9745 21.5667 49.6141 21.6785C49.4165 21.7398 49.2082 21.7821 48.9893 21.8054C48.7732 21.8278 48.558 21.8324 48.3437 21.8192C48.1284 21.8031 47.9208 21.7704 47.7207 21.7209C47.5206 21.6715 47.3386 21.6036 47.1749 21.5174L47.3973 20.6935C47.4168 20.6332 47.4493 20.5786 47.4946 20.5295C47.5419 20.4766 47.5989 20.4398 47.6658 20.4191C47.753 20.392 47.8487 20.3926 47.953 20.4208C48.0602 20.4481 48.1794 20.478 48.3106 20.5106C48.4447 20.5423 48.5929 20.5632 48.7554 20.5734C48.9178 20.5835 49.0978 20.558 49.2954 20.4967C49.5628 20.4138 49.7526 20.2912 49.8648 20.129C49.976 19.9639 49.992 19.7534 49.9127 19.4977C49.8667 19.3495 49.7886 19.2415 49.6784 19.1737C49.5682 19.106 49.4368 19.0623 49.2842 19.0427C49.1345 19.0222 48.9681 19.0149 48.7852 19.0207C48.6022 19.0264 48.4135 19.0292 48.2191 19.029C48.0238 19.0258 47.8292 19.0097 47.6354 18.9806C47.4408 18.9486 47.2558 18.8864 47.0807 18.7942C46.9076 18.6982 46.7492 18.5625 46.6057 18.3872C46.4612 18.209 46.343 17.9717 46.2511 17.6753C46.1772 17.437 46.153 17.1896 46.1786 16.9332C46.2043 16.6767 46.2826 16.431 46.4136 16.1961C46.5446 15.9611 46.729 15.7494 46.9669 15.561C47.2038 15.3697 47.4967 15.2199 47.8454 15.1118C48.0401 15.0514 48.234 15.0088 48.427 14.984C48.622 14.9554 48.8118 14.9459 48.9964 14.9555C49.18 14.9623 49.3562 14.9857 49.5247 15.0259C49.6952 15.0622 49.8534 15.1151 49.9992 15.1845L49.8452 15.9825Z" fill="#BB932C"/>
<path d="M60.4338 14.1311L58.5707 14.3059L59.0776 19.7089L57.5417 19.853L57.0348 14.45L55.1717 14.6248L55.0574 13.407L60.3195 12.9133L60.4338 14.1311Z" fill="#BB932C"/>
<path d="M77.678 18.67C77.548 19.1329 77.3472 19.5379 77.0758 19.8851C76.8081 20.2303 76.489 20.5056 76.1183 20.7112C75.7484 20.9138 75.3358 21.0381 74.8804 21.0839C74.4288 21.1277 73.954 21.0796 73.4561 20.9397L70.9691 20.2407L72.7683 13.8388L75.2552 14.5378C75.7532 14.6777 76.1831 14.8854 76.545 15.161C76.9098 15.4373 77.1973 15.7583 77.4074 16.124C77.6176 16.4896 77.7466 16.8909 77.7945 17.3279C77.8461 17.7628 77.8073 18.2101 77.678 18.67ZM76.1577 18.2428C76.2466 17.9264 76.2859 17.6293 76.2755 17.3514C76.2651 17.0735 76.207 16.8249 76.1011 16.6055C75.999 16.384 75.8498 16.1951 75.6535 16.0388C75.4581 15.8796 75.2183 15.76 74.9341 15.6802L73.9411 15.4011L72.7841 19.5182L73.7771 19.7972C74.0612 19.8771 74.3278 19.9014 74.5768 19.8703C74.8266 19.8362 75.0523 19.7526 75.254 19.6197C75.4595 19.4846 75.639 19.3012 75.7927 19.0694C75.9463 18.8376 76.068 18.5621 76.1577 18.2428Z" fill="#BB932C"/>
<path d="M85.2373 19.7071L84.4827 21.0631L86.3092 22.0796L85.7544 23.0766L83.9278 22.0601L83.1577 23.444L85.5425 24.7712L84.9655 25.8082L81.2246 23.7263L84.4584 17.9156L88.1993 19.9975L87.6222 21.0344L85.2373 19.7071Z" fill="#BB932C"/>
<path d="M96.6183 31.1028C96.3622 31.3136 96.1591 31.536 96.0089 31.7701C95.861 32.0022 95.7669 32.2373 95.7265 32.4755C95.688 32.716 95.7047 32.9565 95.7765 33.1969C95.8526 33.4377 95.9854 33.6733 96.1749 33.9035C96.3625 34.1313 96.5662 34.3046 96.786 34.4232C97.0081 34.5398 97.24 34.6012 97.4815 34.6073C97.7249 34.6158 97.9747 34.5697 98.2309 34.4692C98.4894 34.3667 98.7467 34.2101 99.0028 33.9993C99.2565 33.7904 99.4573 33.57 99.6051 33.3379C99.7554 33.1038 99.8497 32.8666 99.8881 32.626C99.9285 32.3878 99.9128 32.1485 99.841 31.9081C99.7692 31.6677 99.6395 31.4336 99.4519 31.2057C99.2624 30.9755 99.0556 30.8009 98.8315 30.6819C98.6094 30.5652 98.3766 30.5027 98.1331 30.4942C97.8916 30.4881 97.6416 30.5363 97.3831 30.6387C97.1269 30.7393 96.872 30.894 96.6183 31.1028ZM96.7136 38.4141L95.9072 37.4345C95.7912 37.2935 95.7055 37.1512 95.6503 37.0075C95.5946 36.8681 95.5765 36.7096 95.5958 36.5321L95.7861 35.3054C95.5771 35.1425 95.3778 34.9459 95.1883 34.7157C94.8595 34.3164 94.6267 33.8971 94.4899 33.458C94.353 33.0189 94.3054 32.5852 94.3469 32.1569C94.3927 31.729 94.5222 31.319 94.7353 30.9268C94.9503 30.5369 95.2434 30.1892 95.6146 29.8837C95.9857 29.5781 96.3833 29.3572 96.8072 29.2211C97.233 29.0873 97.6591 29.04 98.0855 29.0791C98.5138 29.1207 98.9303 29.2507 99.3349 29.4694C99.7396 29.688 100.106 29.997 100.435 30.3964C100.764 30.7957 100.994 31.2147 101.127 31.6534C101.264 32.0925 101.311 32.5251 101.267 32.951C101.224 33.377 101.094 33.7849 100.879 34.1747C100.666 34.5669 100.375 34.9149 100.006 35.2185C99.7856 35.4003 99.5537 35.5518 99.3107 35.6731C99.0719 35.7947 98.8275 35.8856 98.5774 35.9457C98.3292 36.0081 98.0766 36.0387 97.8195 36.0376C97.5643 36.0388 97.3122 36.0078 97.0632 35.9448L96.7136 38.4141Z" fill="#BB932C"/>
<path d="M102.346 43.4711C102.432 43.6593 102.539 43.8129 102.667 43.9318C102.799 44.0522 102.946 44.1371 103.109 44.1865C103.272 44.2358 103.449 44.2489 103.639 44.2257C103.833 44.204 104.037 44.1445 104.25 44.0472L107.833 42.4119L108.474 43.8153L104.89 45.4507C104.52 45.6199 104.151 45.7144 103.786 45.7341C103.421 45.7566 103.076 45.7069 102.749 45.585C102.423 45.4631 102.124 45.27 101.853 45.0058C101.582 44.7415 101.355 44.4087 101.171 44.0074C100.987 43.6032 100.884 43.2122 100.862 42.8342C100.84 42.4563 100.89 42.104 101.012 41.7775C101.134 41.4509 101.322 41.1574 101.578 40.8969C101.834 40.6364 102.147 40.4215 102.518 40.2522L106.101 38.6168L106.742 40.0202L103.163 41.6537C102.949 41.751 102.77 41.8645 102.626 41.9941C102.485 42.1253 102.378 42.2692 102.306 42.426C102.236 42.5814 102.203 42.7471 102.207 42.9228C102.214 43.1001 102.261 43.2828 102.346 43.4711Z" fill="#BB932C"/>
<path d="M107.217 54.5237L108.898 53.59C109.003 53.5243 109.128 53.452 109.271 53.3732C109.418 53.2939 109.576 53.2123 109.746 53.1286C109.555 53.1171 109.377 53.1001 109.212 53.0777C109.048 53.0553 108.904 53.0321 108.782 53.008L106.89 52.7324L107.217 54.5237ZM105.158 57.3921L104.942 56.2158C104.918 56.0841 104.929 55.9724 104.974 55.8806C105.022 55.7883 105.09 55.7124 105.178 55.653L106.248 55.0583L105.793 52.5711L104.582 52.3936C104.492 52.376 104.405 52.3301 104.32 52.2558C104.239 52.1841 104.187 52.0853 104.164 51.9596L103.947 50.7744L110.952 52.11L111.236 53.6634L105.158 57.3921Z" fill="#BB932C"/>
<path d="M106.462 65.7544L105.23 65.7056L105.389 61.7015L112.034 61.9647L111.973 63.5062L106.559 63.2917L106.462 65.7544Z" fill="#BB932C"/>
<path d="M104.266 71.731L104.595 70.2144L111.094 71.6223L110.765 73.1389L104.266 71.731Z" fill="#BB932C"/>
<path d="M103.707 83.1689C103.267 82.9756 102.893 82.7204 102.587 82.4032C102.283 82.0901 102.055 81.7356 101.903 81.3399C101.754 80.9454 101.688 80.5195 101.706 80.0622C101.726 79.6089 101.84 79.1454 102.048 78.6718L103.086 76.3066L109.175 78.9804L108.136 81.3457C107.928 81.8193 107.663 82.2161 107.339 82.536C107.015 82.8588 106.657 83.0987 106.266 83.2558C105.874 83.413 105.459 83.4848 105.02 83.4713C104.582 83.4618 104.144 83.361 103.707 83.1689ZM104.342 81.723C104.643 81.8552 104.931 81.9354 105.208 81.9639C105.485 81.9923 105.739 81.9694 105.971 81.8952C106.204 81.8249 106.412 81.7035 106.594 81.5309C106.779 81.3596 106.931 81.1388 107.05 80.8685L107.465 79.9241L103.549 78.2045L103.134 79.149C103.016 79.4192 102.954 79.6798 102.95 79.9307C102.949 80.1828 103.001 80.418 103.104 80.6362C103.209 80.8585 103.366 81.0619 103.574 81.2463C103.782 81.4308 104.038 81.5897 104.342 81.723Z" fill="#BB932C"/>
<path d="M98.0857 90.3318L99.9014 90.9635C100.021 90.9984 100.157 91.0431 100.312 91.0976C100.468 91.1539 100.635 91.2177 100.81 91.2889C100.692 91.1389 100.586 90.995 100.493 90.857C100.4 90.719 100.322 90.5965 100.258 90.4895L99.2037 88.8943L98.0857 90.3318ZM94.5742 90.7057L95.3084 89.7618C95.3906 89.6561 95.4809 89.5896 95.5794 89.5621C95.6803 89.5365 95.7822 89.5367 95.8852 89.5629L97.0413 89.9648L98.5936 87.9689L97.9195 86.9473C97.8728 86.8686 97.8489 86.7729 97.8479 86.6603C97.8473 86.5519 97.8863 86.4473 97.9647 86.3465L98.7045 85.3953L102.373 91.5099L101.404 92.7564L94.5742 90.7057Z" fill="#BB932C"/>
<path d="M88.8538 100.139C88.558 99.7595 88.3508 99.3578 88.2319 98.9333C88.1125 98.5132 88.0799 98.0929 88.134 97.6725C88.1899 97.2546 88.3344 96.8486 88.5673 96.4546C88.7997 96.0649 89.1198 95.711 89.5277 95.3928L91.5644 93.8038L95.6548 99.0469L93.6181 100.636C93.2102 100.954 92.7881 101.177 92.3517 101.305C91.9129 101.436 91.484 101.477 91.0649 101.429C90.6459 101.382 90.2462 101.248 89.8658 101.028C89.485 100.812 89.1476 100.515 88.8538 100.139ZM90.0989 99.1672C90.301 99.4263 90.5171 99.634 90.7471 99.7903C90.9771 99.9466 91.2118 100.047 91.4512 100.092C91.6902 100.141 91.9307 100.133 92.1729 100.067C92.417 100.004 92.6554 99.8818 92.8881 99.7002L93.7014 99.0658L91.0709 95.6939L90.2576 96.3284C90.0249 96.51 89.8473 96.7102 89.7249 96.9292C89.6043 97.1507 89.5378 97.382 89.5253 97.6233C89.5124 97.8688 89.5537 98.1221 89.6494 98.3832C89.745 98.6444 89.8949 98.9057 90.0989 99.1672Z" fill="#BB932C"/>
<path d="M83.5385 105.613L82.8935 104.201L80.9923 105.07L80.518 104.032L82.4193 103.164L81.761 101.723L79.2786 102.858L78.7853 101.778L82.6792 99.9988L85.4431 106.047L81.5493 107.827L81.0561 106.747L83.5385 105.613Z" fill="#BB932C"/>
<path d="M70.1518 54.8489C70.6154 54.8489 70.9894 55.2136 70.9894 55.6542C70.9894 56.105 70.6207 56.4697 70.1518 56.4697C69.6777 56.4697 69.3036 56.105 69.3036 55.6542C69.3036 55.2085 69.6777 54.8489 70.1518 54.8489ZM62.3496 49.1356C62.9449 49.1356 63.419 49.5965 63.419 50.1638C63.419 50.7361 62.9396 51.192 62.3496 51.192C61.7648 51.192 61.2854 50.7361 61.2854 50.1638C61.2801 49.5965 61.7648 49.1356 62.3496 49.1356ZM54.5263 54.8489C54.9846 54.8489 55.3692 55.2136 55.3692 55.6542C55.3692 56.105 54.9846 56.4697 54.5263 56.4697C54.0574 56.4697 53.6781 56.105 53.6781 55.6542C53.6781 55.2085 54.0574 54.8489 54.5263 54.8489ZM47.5933 55.9227C47.5933 55.482 47.9726 55.1173 48.4414 55.1173C48.9051 55.1173 49.2844 55.482 49.2844 55.9227C49.2844 56.3735 48.9051 56.7381 48.4414 56.7381C47.9673 56.7381 47.5933 56.3735 47.5933 55.9227ZM70.9578 71.067C70.7629 71.5026 70.5417 71.5938 70.0939 71.4368C69.4933 71.2139 66.5852 70.0844 62.2653 70.049C57.9453 70.0844 55.0373 71.1886 54.4314 71.4114C53.9889 71.5583 53.7676 71.5077 53.5832 71.067C53.3304 70.4795 53.4305 70.2465 53.8624 70.0439C54.9898 69.5425 58.0928 68.2053 62.0651 68.2053H62.2337H62.2442H62.2705H62.2863H62.3074H62.3232H62.4865C66.4482 68.2053 69.546 69.5475 70.6892 70.0439C71.1054 70.2465 71.2054 70.4744 70.9578 71.067ZM75.6676 58.1969L71.8745 68.3167C71.5532 69.1373 71.2318 69.036 70.6576 68.7219C70.1044 68.4028 66.7275 67.0353 62.5603 67.0353H62.0967C57.9348 67.0353 54.5631 68.4028 53.9942 68.7219C53.441 69.036 53.1091 69.1879 52.7877 68.3724L48.9893 58.2222C48.9893 58.2222 48.6785 57.4321 49.0368 57.3156C49.3687 57.2143 49.6057 57.6549 49.7374 57.9082C50.0483 58.4754 51.6709 61.484 52.4032 62.2742C53.0564 62.963 53.6412 62.9833 53.9889 62.9022C54.7475 62.7402 55.0794 61.9146 54.8423 59.6556C54.6053 57.4017 54.4894 57.118 54.8898 57.042C55.2427 56.9762 55.3586 57.5384 55.4535 57.8069C55.5483 58.0753 56.328 61.2814 57.6556 61.7576C58.6987 62.1324 59.5363 61.793 60.0895 60.5977C60.7059 59.2504 61.317 56.723 61.5857 54.4133C61.828 52.281 61.8596 51.4959 62.2653 51.4959H62.3812C62.7921 51.4959 62.8184 52.3924 63.0713 54.5247C63.3453 56.8394 63.9564 59.3112 64.5675 60.6585C65.1101 61.8589 65.953 62.1628 67.0014 61.793C68.3237 61.3169 69.114 58.0956 69.2035 57.8271C69.3036 57.5536 69.4143 56.9863 69.7672 57.0522C70.1782 57.1282 70.0464 57.4118 69.8199 59.6657C69.5828 61.9247 69.9147 62.7452 70.6734 62.9124C71.0211 62.9934 71.6006 62.9681 72.2591 62.2843C72.9914 61.4942 74.6087 58.4856 74.9196 57.9183C75.0565 57.66 75.2936 57.2193 75.6202 57.3257C75.989 57.4371 75.6676 58.1969 75.6676 58.1969ZM76.2419 56.7381C75.7677 56.7381 75.3884 56.3735 75.3884 55.9227C75.3884 55.482 75.7677 55.1173 76.2419 55.1173C76.7055 55.1173 77.0848 55.482 77.0848 55.9227C77.0848 56.3735 76.7055 56.7381 76.2419 56.7381Z" fill="#FCFCFC"/>
</svg>
