<svg width="26" height="26" viewBox="0 0 26 26" fill="none" xmlns="http://www.w3.org/2000/svg">
<path fill-rule="evenodd" clip-rule="evenodd" d="M1 5.37739V5.00006C1 2.79073 2.79067 1.00006 5 1.00006H21C23.2093 1.00006 25 2.79073 25 5.00006V17.0001C25 19.2094 23.2093 21.0001 21 21.0001H19.6667" fill="#1CA6AE"/>
<path d="M1 5.37739V5.00006C1 2.79073 2.79067 1.00006 5 1.00006H21C23.2093 1.00006 25 2.79073 25 5.00006V17.0001C25 19.2094 23.2093 21.0001 21 21.0001H19.6667" stroke="#1CA6AE" stroke-width="1.5" stroke-linecap="round" stroke-linejoin="round"/>
<path d="M25.0001 8.99986H19.6667" stroke="#FFDD76" stroke-width="1.5" stroke-linecap="round" stroke-linejoin="round"/>
<path fill-rule="evenodd" clip-rule="evenodd" d="M14.7667 24.896C17.2733 25.4747 19.6667 23.5707 19.6667 20.9987V9.51604C19.6667 7.65337 18.3813 6.03737 16.5667 5.61871L4.26667 2.78004C2.59467 2.39337 1 3.66271 1 5.37737V18.536C1 20.3987 2.28533 22.0147 4.1 22.4334L14.7667 24.896Z" fill="#4DCBD3" stroke="#4DCBD3" stroke-width="1.5" stroke-linecap="round" stroke-linejoin="round"/>
<path d="M14.9986 14.9732C14.8146 14.9746 14.6666 15.1239 14.6666 15.3079C14.6666 15.4919 14.8159 15.6412 14.9999 15.6399C15.1839 15.6399 15.3333 15.4906 15.3333 15.3066C15.3333 15.1226 15.1839 14.9732 14.9986 14.9732" stroke="#FFDD76" stroke-width="1.5" stroke-linecap="round" stroke-linejoin="round"/>
</svg>
